# xmcd
#
# Track frame offsets:
#	150
#	26477
#	45812
#
# Disc length: 835 seconds
#
# Revision: 6
# Processed by: cddbd v1.5.2PL0 Copyright (c) Steve Scherf et al.
# Submitted via: EasyCDDAExtractor 10.0.1.1
#
DISCID=14034103
DTITLE=Eric Clapton - Pilgrim (Maxi Single)
DYEAR=1998
DGENRE=Blues
TTITLE0=Pilgrim (album version)
TTITLE1=Pilgrim (mick guzauski remix edit)
TTITLE2=Needs His Woman (album version)
EXTD=CD Single\nKula CD 2
EXTT0=
EXTT1=
EXTT2=
PLAYORDER=
